[2026-03-25T04:54:46] SOURCE: D:\apps\ErsatzTV-HLS-Copy-Prep\source\33.mp4
[2026-03-25T04:54:46] TARGET: D:\apps\ErsatzTV-HLS-Copy-Prep\target\33.mp4
[2026-03-25T04:54:46] FPS: 60.000000
[2026-03-25T04:54:46] CMD: ["D:\\apps\\ErsatzTV-HLS-Copy-Prep\\bin\\ffmpeg.exe", "-y", "-hide_banner", "-loglevel", "info", "-stats_period", "5", "-progress", "pipe:1", "-i", "D:\\apps\\ErsatzTV-HLS-Copy-Prep\\source\\33.mp4", "-map", "0:v:0", "-map", "0:a:0?", "-sn", "-dn", "-vf", "scale=trunc(iw/2)*2:trunc(ih/2)*2,setsar=1,fps=60", "-c:v", "libx264", "-preset", "medium", "-crf", "18", "-pix_fmt", "yuv420p", "-profile:v", "high", "-level", "4.1", "-g", "60", "-keyint_min", "60", "-sc_threshold", "0", "-bf", "0", "-force_key_frames", "expr:gte(t,n_forced*1)", "-c:a", "aac", "-b:a", "192k", "-ar", "48000", "-ac", "2", "-movflags", "+faststart", "D:\\apps\\ErsatzTV-HLS-Copy-Prep\\target\\33.mp4"]

ffmpeg stats and -progress period set to 5.
Input #0, mov,mp4,m4a,3gp,3g2,mj2, from 'D:\apps\ErsatzTV-HLS-Copy-Prep\source\33.mp4':
  Metadata:
    major_brand     : isom
    minor_version   : 512
    compatible_brands: isomiso2avc1mp41
    encoder         : ShanaEncoder
  Duration: 00:22:35.47, start: 0.000000, bitrate: 3728 kb/s
  Stream #0:0[0x1](und): Video: h264 (Main) (avc1 / 0x31637661), yuv420p(progressive), 1920x1080 [SAR 1:1 DAR 16:9], 3587 kb/s, 60 fps, 60 tbr, 15360 tbn (default)
      Metadata:
        handler_name    : VideoHandler
        vendor_id       : [0][0][0][0]
  Stream #0:1[0x2](und): Audio: aac (LC) (mp4a / 0x6134706D), 48000 Hz, stereo, fltp, 127 kb/s (default)
      Metadata:
        handler_name    : SoundHandler
        vendor_id       : [0][0][0][0]
Stream mapping:
  Stream #0:0 -> #0:0 (h264 (native) -> h264 (libx264))
  Stream #0:1 -> #0:1 (aac (native) -> aac (native))
Press [q] to stop, [?] for help
[libx264 @ 00000273bdb0a3c0] using SAR=1/1
[libx264 @ 00000273bdb0a3c0] MB rate (489600) > level limit (245760)
[libx264 @ 00000273bdb0a3c0] using cpu capabilities: MMX2 SSE2Fast SSSE3 SSE4.2 AVX
[libx264 @ 00000273bdb0a3c0] profile High, level 4.1, 4:2:0, 8-bit
[libx264 @ 00000273bdb0a3c0] 264 - core 165 - H.264/MPEG-4 AVC codec - Copyleft 2003-2025 - http://www.videolan.org/x264.html - options: cabac=1 ref=3 deblock=1:0:0 analyse=0x3:0x113 me=hex subme=7 psy=1 psy_rd=1.00:0.00 mixed_ref=1 me_range=16 chroma_me=1 trellis=1 8x8dct=1 cqm=0 deadzone=21,11 fast_pskip=1 chroma_qp_offset=-2 threads=12 lookahead_threads=2 sliced_threads=0 nr=0 decimate=1 interlaced=0 bluray_compat=0 constrained_intra=0 bframes=0 weightp=2 keyint=60 keyint_min=31 scenecut=0 intra_refresh=0 rc_lookahead=40 rc=crf mbtree=1 crf=18.0 qcomp=0.60 qpmin=0 qpmax=69 qpstep=4 ip_ratio=1.40 aq=1:1.00
Output #0, mp4, to 'D:\apps\ErsatzTV-HLS-Copy-Prep\target\33.mp4':
  Metadata:
    major_brand     : isom
    minor_version   : 512
    compatible_brands: isomiso2avc1mp41
    encoder         : Lavf61.7.100
  Stream #0:0(und): Video: h264 (avc1 / 0x31637661), yuv420p(tv, progressive), 1920x1080 [SAR 1:1 DAR 16:9], q=2-31, 60 fps, 15360 tbn (default)
      Metadata:
        handler_name    : VideoHandler
        vendor_id       : [0][0][0][0]
        encoder         : Lavc61.19.101 libx264
      Side data:
        cpb: bitrate max/min/avg: 0/0/0 buffer size: 0 vbv_delay: N/A
  Stream #0:1(und): Audio: aac (LC) (mp4a / 0x6134706D), 48000 Hz, stereo, fltp, 192 kb/s (default)
      Metadata:
        handler_name    : SoundHandler
        vendor_id       : [0][0][0][0]
        encoder         : Lavc61.19.101 aac
[vost#0:0/libx264 @ 00000273bdb0a040] Error submitting a packet to the muxer: No space left on device
    Last message repeated 1 times
[out#0/mp4 @ 00000273bba11940] Error muxing a packet
[out#0/mp4 @ 00000273bba11940] Task finished with error code: -28 (No space left on device)
[out#0/mp4 @ 00000273bba11940] Terminating thread with return code -28 (No space left on device)
[mp4 @ 00000273bb9fdac0] Starting second pass: moving the moov atom to the beginning of the file
[out#0/mp4 @ 00000273bba11940] Error writing trailer: No space left on device
[out#0/mp4 @ 00000273bba11940] Error closing file: No space left on device
[out#0/mp4 @ 00000273bba11940] video:288KiB audio:38KiB subtitle:0KiB other streams:0KiB global headers:0KiB muxing overhead: unknown
frame=   14 fps=5.3 q=-1.0 Lsize=       0KiB time=00:00:00.23 bitrate=   1.6kbits/s speed=0.0888x    
frame=14
fps=5.33
stream_0_0_q=-1.0
bitrate=   1.6kbits/s
total_size=48
out_time_us=233333
out_time_ms=233333
out_time=00:00:00.233333
dup_frames=0
drop_frames=0
speed=0.0888x
progress=end
[libx264 @ 00000273bdb0a3c0] frame I:2     Avg QP:16.40  size: 93034
[libx264 @ 00000273bdb0a3c0] frame P:104   Avg QP:17.54  size: 11316
[libx264 @ 00000273bdb0a3c0] mb I  I16..4: 22.3% 67.1% 10.7%
[libx264 @ 00000273bdb0a3c0] mb P  I16..4:  1.4%  3.5%  0.9%  P16..4: 17.7%  5.1%  2.8%  0.0%  0.0%    skip:68.5%
[libx264 @ 00000273bdb0a3c0] 8x8 transform intra:61.9% inter:73.0%
[libx264 @ 00000273bdb0a3c0] coded y,uvDC,uvAC intra: 47.5% 8.0% 3.6% inter: 7.9% 2.3% 0.0%
[libx264 @ 00000273bdb0a3c0] i16 v,h,dc,p: 29% 30% 25% 16%
[libx264 @ 00000273bdb0a3c0] i8 v,h,dc,ddl,ddr,vr,hd,vl,hu: 32% 18% 27%  2%  4%  6%  3%  3%  3%
[libx264 @ 00000273bdb0a3c0] i4 v,h,dc,ddl,ddr,vr,hd,vl,hu: 29% 15% 12%  4% 10% 13%  7%  5%  4%
[libx264 @ 00000273bdb0a3c0] i8c dc,h,v,p: 91%  4%  4%  1%
[libx264 @ 00000273bdb0a3c0] Weighted P-Frames: Y:0.0% UV:0.0%
[libx264 @ 00000273bdb0a3c0] ref P L0: 78.5%  6.8%  9.1%  5.6%
[libx264 @ 00000273bdb0a3c0] kb/s:6171.94
[aac @ 00000273beacaec0] Qavg: 5045.396
Conversion failed!
